<svg version="1.1" id="Layer_1" xmlns="http://www.w3.org/2000/svg" xmlns:xlink="http://www.w3.org/1999/xlink" x="0px" y="0px"
	 width="100%" viewBox="0 0 2000 600" enable-background="new 0 0 2000 600" xml:space="preserve">
<path fill="#FFFFFF" opacity="1.000000" stroke="none" 
	d="
M1461.000000,601.000000 
	C974.000000,601.000000 487.500000,601.000000 1.000000,601.000000 
	C1.000000,401.000000 1.000000,201.000000 1.000000,1.000000 
	C667.666687,1.000000 1334.333374,1.000000 2001.000000,1.000000 
	C2001.000000,201.000000 2001.000000,401.000000 2001.000000,601.000000 
	C1821.166626,601.000000 1641.333374,601.000000 1461.000000,601.000000 
M257.912659,277.444824 
	C255.547028,294.400238 255.714233,311.327850 258.810730,328.169403 
	C276.629669,425.084534 386.917023,476.227142 472.424194,427.258209 
	C528.714966,395.021149 556.203125,332.172211 541.990479,268.201538 
	C521.791321,177.285614 418.080017,128.682678 335.516144,171.758011 
	C292.839844,194.023148 267.029541,229.207397 257.912659,277.444824 
M816.905579,271.439514 
	C817.039124,283.115112 815.259277,281.948761 827.656982,282.005280 
	C828.656616,282.009857 829.673279,281.886353 830.653015,282.026001 
	C835.633179,282.735992 836.909363,280.368652 836.871338,275.706757 
	C836.693420,253.882935 836.792419,232.056854 836.792419,210.231583 
	C836.792358,195.903549 836.717468,181.574844 836.841919,167.247894 
	C836.875122,163.427734 835.567871,161.750488 831.602112,161.941666 
	C826.947937,162.166016 822.241211,162.343842 817.618652,161.901001 
	C812.440735,161.404953 810.800964,163.745422 809.795166,168.446762 
	C805.065308,190.555542 799.987488,212.589935 795.007080,234.644836 
	C794.794250,235.587387 794.315735,236.469940 793.577148,238.365616 
	C788.192078,214.150940 782.976379,191.127701 778.021240,168.048492 
	C777.045959,163.505676 775.177368,161.433929 770.326111,161.910416 
	C766.200745,162.315613 762.004089,161.988907 757.838928,161.995285 
	C751.128418,162.005585 751.041992,162.077927 751.040894,168.622757 
	C751.035278,201.777176 750.950439,234.931946 751.075867,268.085876 
	C751.137512,284.385437 748.521545,281.619293 765.035767,282.085480 
	C769.798035,282.219910 771.039185,280.346710 770.955383,275.910553 
	C770.732178,264.085785 770.879456,252.254044 770.879456,240.425079 
	C770.879456,231.010101 770.879517,221.595123 770.879517,212.180145 
	C772.223694,213.324036 772.682068,214.617264 772.976196,215.946838 
	C777.500366,236.401093 782.156921,256.828217 786.407532,277.339417 
	C787.526550,282.738861 791.062073,281.851990 794.665833,282.047333 
	C798.333679,282.246185 800.401489,281.285522 801.267822,277.183319 
	C805.664917,256.363098 810.370850,235.608109 814.993591,214.835831 
	C815.207642,213.874130 815.662781,212.966095 816.005676,212.033081 
	C816.305664,212.095795 816.605591,212.158524 816.905579,212.221237 
	C816.905579,231.633255 816.905579,251.045288 816.905579,271.439514 
M1374.325317,266.490326 
	C1374.326172,270.156647 1374.468140,273.829926 1374.287476,277.487305 
	C1374.113525,281.009735 1375.610596,282.271973 1379.033447,282.050964 
	C1382.186646,281.847351 1385.391235,281.742371 1388.523438,282.069580 
	C1393.272705,282.565765 1394.896118,280.916382 1394.825439,275.990509 
	C1394.562134,257.662292 1394.714355,239.328018 1394.732544,220.996033 
	C1394.734009,219.529877 1394.902710,218.063904 1394.993652,216.597839 
	C1402.081299,234.089844 1408.393921,251.555191 1414.704346,269.021362 
	C1419.507568,282.315582 1419.505371,282.188385 1433.646362,282.092285 
	C1437.450073,282.066406 1438.463501,280.732910 1438.453857,277.121338 
	C1438.356079,240.290939 1438.363281,203.460114 1438.444580,166.629623 
	C1438.452026,163.251694 1437.489380,161.698944 1433.894409,161.941422 
	C1430.410522,162.176392 1426.879272,162.222717 1423.403564,161.933212 
	C1419.185547,161.581879 1417.967529,163.252487 1418.007324,167.376068 
	C1418.188599,186.206299 1418.092529,205.039230 1418.070923,223.871185 
	C1418.069580,225.011414 1417.848999,226.151398 1417.730469,227.291504 
	C1410.614868,209.648727 1404.291138,191.998932 1397.974609,174.346573 
	C1393.542969,161.962051 1393.540161,162.221664 1380.542969,161.865814 
	C1375.225220,161.720230 1374.203979,163.676346 1374.231079,168.500931 
	C1374.412598,200.830887 1374.325439,233.162369 1374.325317,266.490326 
M1614.757324,375.440277 
	C1614.757324,378.659515 1614.757324,381.878784 1614.757324,385.098022 
	C1613.105225,383.926331 1612.505737,382.658966 1612.031738,381.346375 
	C1606.109009,364.947601 1600.283325,348.513275 1594.271729,332.147217 
	C1588.811523,317.282043 1593.011841,320.511261 1576.777710,319.919342 
	C1572.257080,319.754486 1570.764526,320.986969 1570.794189,325.742523 
	C1571.000610,358.885956 1570.903076,392.031250 1570.902954,425.175964 
	C1570.902832,440.247162 1570.902954,440.105347 1586.180542,440.095520 
	C1590.268433,440.092896 1591.222778,438.677032 1591.189331,434.847198 
	C1591.023438,415.861237 1591.108521,396.873047 1591.127808,377.885620 
	C1591.128906,376.736877 1591.325073,375.588287 1591.430542,374.439606 
	C1598.511108,391.868439 1604.778320,409.349731 1611.055542,426.827362 
	C1615.944214,440.438568 1615.949829,440.436523 1630.395508,440.001465 
	C1630.561890,439.996460 1630.729614,439.988281 1630.895020,440.002045 
	C1633.851807,440.247986 1635.233643,438.985016 1635.041748,435.931732 
	C1634.906128,433.775055 1635.016724,431.602905 1635.016724,429.437683 
	C1635.016846,394.960541 1634.918579,360.482819 1635.126221,326.006927 
	C1635.156372,321.036530 1633.533325,319.461731 1628.831665,319.942383 
	C1625.864624,320.245667 1622.821289,320.218323 1619.848389,319.944702 
	C1615.927124,319.583710 1614.623779,320.965790 1614.673340,324.993927 
	C1614.876343,341.480499 1614.757568,357.971039 1614.757324,375.440277 
M933.323547,229.499817 
	C933.323853,245.158768 933.464661,260.819763 933.235229,276.475372 
	C933.169739,280.942230 934.694275,282.491821 939.016663,282.061279 
	C941.820801,281.781982 944.703125,281.756470 947.501038,282.065155 
	C952.245544,282.588562 953.966980,280.923981 953.824524,275.984772 
	C953.499573,264.718689 953.721924,253.436798 953.721924,241.780243 
	C955.660522,241.780243 957.169067,242.021652 958.570312,241.736099 
	C963.258362,240.780777 964.886353,243.123993 965.810242,247.332108 
	C967.412476,254.629929 969.479248,261.827881 971.425781,269.047577 
	C974.930237,282.045380 974.953308,282.039154 988.609436,282.008698 
	C995.123474,281.994202 995.115723,281.982635 993.413574,275.505890 
	C990.304871,263.677521 987.222900,251.842163 984.129700,240.009338 
	C992.336426,235.827652 994.959106,228.942017 995.027954,220.786667 
	C995.127747,208.959991 995.095459,197.131790 995.056885,185.304443 
	C995.004089,169.101242 988.192871,162.182678 971.987427,162.013733 
	C960.994080,161.899124 949.994324,162.165573 939.005981,161.904541 
	C934.683655,161.801865 933.191956,163.073410 933.235962,167.530609 
	C933.436890,187.851974 933.323730,208.176453 933.323547,229.499817 
M829.323547,339.501160 
	C829.323547,365.655090 829.323425,391.809052 829.323669,417.962982 
	C829.323730,423.793457 829.449768,429.627625 829.279358,435.453064 
	C829.177368,438.936432 830.536926,440.314423 833.993103,440.046143 
	C836.476868,439.853333 838.987732,440.008759 841.486511,440.008728 
	C849.720703,440.008636 849.721497,440.008606 849.722046,432.010406 
	C849.722839,421.399506 849.722290,410.788635 849.722290,399.984802 
	C853.448181,399.984802 856.705261,399.984802 859.803284,399.984802 
	C860.064392,400.320923 860.220825,400.437775 860.261047,400.586151 
	C862.649963,409.398987 865.019165,418.217163 867.412048,427.028931 
	C870.945190,440.039917 870.952026,440.038086 884.587830,440.008759 
	C891.124329,439.994720 891.117310,439.982544 889.420166,433.526398 
	C886.309937,421.694977 883.225769,409.856659 880.128479,398.012482 
	C888.318481,393.844757 890.960876,386.965881 891.026978,378.808105 
	C891.126831,366.481628 891.162598,354.152740 891.035522,341.826813 
	C890.889099,327.617950 884.201538,320.549500 870.004517,320.119415 
	C857.854858,319.751343 845.685181,320.089325 833.526489,319.941650 
	C830.102966,319.900055 829.217041,321.471802 829.294250,324.509827 
	C829.412720,329.171204 829.324219,333.837799 829.323547,339.501160 
M1204.698364,216.499512 
	C1204.698608,236.655655 1204.794922,256.812653 1204.616943,276.967224 
	C1204.581909,280.944427 1205.822266,282.403839 1209.753418,282.059753 
	C1212.729004,281.799286 1215.781006,281.715973 1218.736328,282.072479 
	C1223.959839,282.702515 1225.214478,280.478302 1225.113403,275.545441 
	C1224.817505,261.098816 1225.008057,246.642212 1225.008057,232.100281 
	C1231.635864,232.100281 1237.848999,232.100281 1244.304565,232.100281 
	C1244.304565,247.207245 1244.395508,262.011749 1244.242065,276.813721 
	C1244.202637,280.615845 1245.273315,282.397797 1249.340820,282.063446 
	C1252.650024,281.791382 1256.018311,281.785034 1259.326294,282.064331 
	C1263.501099,282.416901 1264.783813,280.791565 1264.769409,276.651978 
	C1264.642090,240.171402 1264.655029,203.690094 1264.756348,167.209366 
	C1264.766846,163.427597 1263.776245,161.570770 1259.689941,161.942841 
	C1256.881348,162.198593 1254.030762,161.990555 1251.198853,161.992096 
	C1244.312500,161.995850 1244.306763,161.996384 1244.304810,168.820633 
	C1244.300903,183.088593 1244.303589,197.356567 1244.303589,211.687744 
	C1237.630127,211.687744 1231.409180,211.687744 1225.007935,211.687744 
	C1225.007935,196.576187 1224.926758,181.767288 1225.066528,166.960480 
	C1225.100464,163.372086 1224.064209,161.690125 1220.246460,161.943039 
	C1216.763672,162.173782 1213.236816,162.204483 1209.759521,161.935410 
	C1205.839355,161.632080 1204.566040,163.036530 1204.615601,167.025772 
	C1204.816284,183.181519 1204.698608,199.341248 1204.698364,216.499512 
M1473.412720,335.407990 
	C1471.070435,325.483490 1465.364136,320.632629 1454.059814,320.211121 
	C1442.087280,319.764709 1430.086914,320.110016 1418.100830,319.950409 
	C1414.603760,319.903839 1413.998779,321.636566 1414.003296,324.614624 
	C1414.059448,361.580750 1414.063477,398.547058 1413.997070,435.513153 
	C1413.991577,438.600677 1414.800781,440.094971 1418.199463,440.054016 
	C1429.687134,439.915649 1441.183472,440.219818 1452.665283,439.921722 
	C1467.359009,439.540161 1473.998291,432.492340 1474.091553,417.629822 
	C1474.173096,404.642181 1474.163086,391.653351 1474.095947,378.665558 
	C1474.022705,364.519226 1473.836914,350.373444 1473.412720,335.407990 
M1552.695801,409.485809 
	C1552.695801,395.653229 1552.755127,381.820343 1552.676392,367.988220 
	C1552.617676,357.662537 1552.748779,347.315094 1552.111938,337.019623 
	C1551.554443,328.006470 1546.085938,321.792908 1537.153564,320.966858 
	C1527.606201,320.083923 1517.846313,320.020935 1508.307373,320.935974 
	C1498.795410,321.848419 1493.481201,328.621887 1492.915894,338.280609 
	C1492.662842,342.601013 1492.702271,346.942047 1492.708618,351.273560 
	C1492.742920,374.604309 1492.636353,397.937286 1492.943115,421.264709 
	C1493.077148,431.458618 1498.781860,438.256866 1508.828857,439.201965 
	C1518.206665,440.084045 1527.807007,439.951172 1537.189941,439.037994 
	C1546.118286,438.169037 1551.247070,431.961945 1552.179810,422.950073 
	C1552.607300,418.819305 1552.539185,414.637207 1552.695801,409.485809 
M951.029663,439.751282 
	C963.948608,437.472076 968.859680,432.002441 969.228210,419.001312 
	C969.449768,411.185211 969.324463,403.358459 969.306702,395.536591 
	C969.263672,376.565094 969.393066,357.590088 969.051331,338.623688 
	C968.868591,328.482086 963.140381,321.817627 953.089233,320.765198 
	C944.375427,319.852783 935.448608,319.808655 926.714905,320.548553 
	C915.979431,321.458008 910.152710,327.623016 909.782166,338.570587 
	C909.191467,356.024200 909.372925,373.506042 909.353760,390.976074 
	C909.342407,401.288727 909.215332,411.621887 909.796448,421.908783 
	C910.380310,432.245453 915.957458,438.317413 926.199402,439.398438 
	C934.100220,440.232391 942.141968,439.731873 951.029663,439.751282 
M1599.807007,279.527466 
	C1608.397949,275.189392 1609.923584,267.307831 1609.950073,258.842010 
	C1610.026611,234.364578 1609.988770,209.886719 1609.957520,185.409088 
	C1609.954712,183.252213 1609.824463,181.071701 1609.491577,178.943130 
	C1607.980957,169.286224 1603.005127,163.615158 1593.369507,162.715576 
	C1584.474609,161.885147 1575.377686,161.840683 1566.488281,162.690216 
	C1556.251709,163.668472 1550.206177,170.441345 1550.093994,180.782791 
	C1549.796387,208.253571 1549.845459,235.730911 1550.077515,263.202942 
	C1550.151855,272.003540 1554.921997,278.862732 1562.592407,280.470581 
	C1574.699829,283.008484 1586.997803,283.298615 1599.807007,279.527466 
M856.582458,269.645538 
	C859.048706,276.653503 864.185364,280.809265 871.364380,281.267853 
	C880.460754,281.848938 889.687317,282.123322 898.735901,281.256927 
	C908.743103,280.298706 914.757996,273.615845 914.878845,263.495911 
	C915.208984,235.863693 915.202393,208.222610 914.888245,180.590057 
	C914.773010,170.458389 908.796448,163.683319 898.814941,162.778458 
	C889.441956,161.928741 879.860046,162.108673 870.479553,162.994492 
	C862.041260,163.791336 857.311523,169.237625 855.816467,177.669479 
	C855.296936,180.599564 855.082275,183.619293 855.074890,186.598938 
	C855.016785,210.073990 854.986084,233.549500 855.097656,257.024139 
	C855.116516,260.987457 855.860779,264.947357 856.582458,269.645538 
M1355.076904,340.710541 
	C1354.404663,327.395721 1348.232178,320.952972 1334.987549,320.161285 
	C1329.344360,319.823944 1323.666992,319.932007 1318.007690,320.015961 
	C1302.146362,320.251312 1295.207397,327.193359 1295.059570,343.025848 
	C1294.961670,353.516754 1295.179199,364.012024 1294.976440,374.499939 
	C1294.885620,379.198242 1296.564575,381.791504 1301.208008,383.208740 
	C1312.454834,386.641388 1323.569580,390.506378 1334.890259,394.247589 
	C1334.890259,399.151459 1334.890259,403.803619 1334.890259,408.455750 
	C1334.890137,419.929596 1333.910034,420.727448 1322.215576,420.271942 
	C1317.630249,420.093292 1315.627808,417.971924 1315.323853,413.574188 
	C1315.025024,409.250061 1316.010376,403.053040 1313.634277,401.123718 
	C1310.877319,398.885132 1305.072998,400.395508 1300.591187,400.288391 
	C1299.759155,400.268494 1298.699829,399.973663 1298.140259,400.367188 
	C1296.971802,401.188995 1295.194092,402.385803 1295.194458,403.428009 
	C1295.196899,410.568451 1295.080444,417.775940 1296.002075,424.831238 
	C1297.034180,432.731293 1302.139038,438.129669 1310.038574,438.940613 
	C1319.255615,439.886810 1328.672119,440.169312 1337.896973,439.429047 
	C1348.820435,438.552460 1354.728760,431.483093 1354.984619,420.354309 
	C1355.256226,408.536255 1355.012817,396.707184 1355.151489,384.884766 
	C1355.195557,381.131256 1353.578735,379.005371 1350.107788,377.895966 
	C1343.149780,375.672028 1336.212280,373.381989 1329.291260,371.045135 
	C1324.755859,369.513672 1318.546631,369.095428 1316.234619,365.900635 
	C1313.906860,362.683990 1315.375732,356.650055 1315.351562,351.849731 
	C1315.292847,340.142822 1316.540894,339.106567 1328.326660,339.749756 
	C1332.918823,340.000427 1334.946167,342.202393 1334.891724,346.659943 
	C1334.855225,349.657104 1335.015015,352.661835 1334.856079,355.650909 
	C1334.702026,358.547363 1335.639771,360.023712 1338.770752,359.924316 
	C1342.930054,359.792267 1347.100220,359.784760 1351.258789,359.926483 
	C1354.417725,360.034210 1355.247559,358.528717 1355.150391,355.649200 
	C1354.993042,350.991455 1355.106567,346.324554 1355.076904,340.710541 
M1332.008667,163.354538 
	C1330.665039,162.901627 1329.330811,162.093002 1327.976318,162.057816 
	C1322.315186,161.910706 1316.642700,162.144775 1310.985352,161.937546 
	C1307.806641,161.821091 1306.599243,163.221527 1305.976074,166.118896 
	C1298.040771,203.017822 1290.057495,239.906494 1281.998169,276.778503 
	C1281.175903,280.540283 1281.645752,282.509644 1286.139282,282.067932 
	C1289.439697,281.743500 1292.813721,281.798340 1296.125610,282.058289 
	C1299.954834,282.358795 1301.835449,281.218048 1302.366333,277.059937 
	C1303.178833,270.697327 1304.709106,264.426392 1305.915039,258.217224 
	C1315.187378,258.217224 1323.979736,258.217224 1332.869873,258.217224 
	C1333.929810,263.787384 1334.984131,269.165497 1335.971313,274.555939 
	C1337.334717,281.999725 1337.313110,282.003754 1344.661011,282.004242 
	C1347.493408,282.004425 1350.341064,281.819061 1353.154663,282.048798 
	C1357.088257,282.369965 1357.656494,280.508331 1356.935425,277.213898 
	C1348.688843,239.533936 1340.484375,201.844742 1332.008667,163.354538 
M751.041443,398.500000 
	C751.041504,410.488312 751.222534,422.480804 750.948181,434.462830 
	C750.845398,438.953003 752.411316,440.468536 756.717041,440.053894 
	C759.521606,439.783844 762.403015,439.742340 765.197205,440.061279 
	C769.938904,440.602448 771.590698,438.962280 771.437317,434.026947 
	C771.086975,422.757782 771.326660,411.470276 771.326660,399.764069 
	C777.628357,399.764069 783.430359,399.933655 789.219360,399.731079 
	C804.330933,399.202301 810.995605,392.344482 811.091614,377.318085 
	C811.163879,365.996246 811.136963,354.673523 811.099731,343.351349 
	C811.045532,326.895844 804.256653,320.123322 787.645020,320.010254 
	C777.322205,319.940002 766.993958,320.175537 756.677429,319.912262 
	C752.335876,319.801422 750.915039,321.129242 750.950623,325.570892 
	C751.142944,349.545959 751.041565,373.523376 751.041443,398.500000 
M1033.217651,211.159180 
	C1033.217651,201.549103 1033.217651,191.939026 1033.217651,181.945999 
	C1045.264038,181.945999 1056.889893,181.860870 1068.513306,181.999771 
	C1071.837402,182.039490 1073.488647,181.197906 1073.228149,177.524567 
	C1072.969727,173.878006 1072.983643,170.186295 1073.226196,166.537521 
	C1073.458862,163.034958 1072.158081,161.901398 1068.662476,161.930405 
	C1051.838379,162.070038 1035.011719,162.083832 1018.188110,161.923035 
	C1014.447632,161.887283 1013.264282,163.170227 1013.273254,166.830170 
	C1013.363220,203.645386 1013.366760,240.461029 1013.270569,277.276215 
	C1013.260681,281.056885 1014.680298,282.113861 1018.296570,282.072266 
	C1032.287964,281.911377 1046.282227,282.006897 1060.275391,282.006897 
	C1073.176270,282.006897 1073.176270,282.006866 1073.172974,269.360016 
	C1073.171143,262.223572 1073.171143,262.222961 1065.783081,262.222565 
	C1055.020142,262.222015 1044.257202,262.222443 1033.378418,262.222443 
	C1033.378418,251.868454 1033.378418,242.122284 1033.378418,231.946136 
	C1038.888062,231.946136 1044.178223,231.946152 1049.468384,231.946152 
	C1064.649048,231.946152 1064.525269,231.947433 1064.366089,216.665894 
	C1064.325928,212.811584 1062.912354,211.860825 1059.345825,211.927048 
	C1050.856812,212.084625 1042.361572,211.898087 1033.217651,211.159180 
M1690.501221,420.222443 
	C1684.876831,420.222443 1679.252441,420.222443 1673.471680,420.222443 
	C1673.471680,409.908142 1673.471680,400.033844 1673.471680,389.946167 
	C1679.445190,389.946167 1685.097778,389.946167 1690.750366,389.946167 
	C1704.306030,389.946167 1704.088745,389.941284 1704.394165,376.388519 
	C1704.505859,371.433624 1703.303589,369.590637 1698.062378,369.874786 
	C1689.837158,370.320648 1681.570190,369.993103 1673.508667,369.993103 
	C1673.508667,359.554688 1673.508667,349.827301 1673.508667,339.945862 
	C1685.523193,339.945862 1697.179565,339.873016 1708.833984,339.993744 
	C1712.003418,340.026550 1713.422363,339.057709 1713.221069,335.705566 
	C1713.001831,332.054260 1712.950073,328.362305 1713.233276,324.719818 
	C1713.530518,320.897339 1711.975708,319.892853 1708.344482,319.926392 
	C1691.855591,320.078735 1675.362305,320.140778 1658.875732,319.896240 
	C1654.381958,319.829559 1653.203979,321.358368 1653.246582,325.642151 
	C1653.433350,344.462524 1653.326660,363.285797 1653.326782,382.108032 
	C1653.326904,399.764282 1653.335449,417.420502 1653.319824,435.076752 
	C1653.317505,437.727905 1653.299072,440.066254 1657.096191,440.046143 
	C1674.585327,439.953613 1692.076172,440.073486 1709.563110,439.856720 
	C1710.778320,439.841675 1712.909668,437.781799 1713.004028,436.549469 
	C1713.395630,431.435974 1713.168701,426.275085 1713.168701,420.222473 
	C1705.696899,420.222473 1698.598633,420.222473 1690.501221,420.222443 
M1124.906372,439.567596 
	C1125.281494,435.027893 1125.479614,430.464600 1126.080322,425.954956 
	C1126.722900,421.130585 1124.619141,420.032227 1120.157227,420.139038 
	C1108.895630,420.408569 1097.623413,420.228333 1086.353394,420.228333 
	C1086.353394,409.834076 1086.353394,399.946503 1086.353394,389.941772 
	C1095.179688,389.941772 1103.674561,389.814880 1112.162598,390.001984 
	C1115.739136,390.080811 1117.436401,389.082733 1117.145752,385.221252 
	C1116.883911,381.741455 1116.886353,378.211182 1117.145142,374.730927 
	C1117.430786,370.887970 1115.770020,369.856079 1112.174072,369.935486 
	C1103.566650,370.125732 1094.952271,369.996979 1086.248535,369.996979 
	C1086.248535,359.776398 1086.248535,350.033905 1086.248535,339.940826 
	C1098.101074,339.940826 1109.728394,339.859680 1121.353027,339.991882 
	C1124.695435,340.029907 1126.321289,339.102539 1126.083618,335.466156 
	C1125.845093,331.815613 1125.835693,328.123871 1126.086426,324.474915 
	C1126.336182,320.840576 1124.741333,319.923340 1121.388794,319.945709 
	C1104.558594,320.057983 1087.726440,320.082336 1070.896851,319.930786 
	C1067.184692,319.897339 1065.971924,321.135162 1065.981812,324.833160 
	C1066.080933,361.661072 1066.069458,398.489410 1065.995361,435.317413 
	C1065.988525,438.668518 1066.953125,440.096008 1070.550903,440.063080 
	C1088.379150,439.899658 1106.209351,439.940674 1124.906372,439.567596 
M1155.660156,438.034088 
	C1167.467041,441.253693 1179.419312,440.778534 1191.250000,438.673035 
	C1197.134033,437.625824 1201.937866,433.513031 1202.888306,427.562866 
	C1204.311157,418.653839 1204.403564,409.532349 1205.105225,399.906342 
	C1198.442505,399.906342 1193.129517,399.716003 1187.852539,400.066589 
	C1186.793823,400.136963 1185.162231,402.186768 1185.021362,403.459534 
	C1184.620972,407.079742 1184.948730,410.773590 1184.811035,414.431732 
	C1184.679565,417.926422 1182.879517,420.000488 1179.222778,420.121094 
	C1177.393433,420.181396 1175.561890,420.223053 1173.731812,420.213104 
	C1165.853149,420.170410 1164.895996,419.216675 1164.889160,411.215118 
	C1164.872314,391.567780 1164.883667,371.920410 1164.883667,352.273071 
	C1164.883667,339.785736 1165.728882,338.996185 1178.245117,339.796509 
	C1178.577393,339.817719 1178.907959,339.866577 1179.240356,339.881714 
	C1182.897583,340.048645 1184.670776,342.152466 1184.811035,345.621033 
	C1184.958740,349.278442 1184.666992,352.964172 1185.001221,356.597565 
	C1185.113647,357.819153 1186.502808,359.866486 1187.401123,359.917969 
	C1192.843750,360.229858 1198.313232,360.073364 1205.069702,360.073364 
	C1204.418091,350.595154 1204.442505,341.613098 1202.993286,332.875397 
	C1201.868896,326.095093 1196.535522,321.663361 1189.735596,321.070648 
	C1180.335083,320.251251 1170.771973,319.870880 1161.389771,320.647644 
	C1150.900879,321.516022 1145.212280,327.786591 1144.784302,338.460052 
	C1144.184326,353.420227 1144.345581,368.414551 1144.350342,383.394226 
	C1144.354492,396.374939 1144.393555,409.362061 1144.810425,422.333710 
	C1145.033936,429.294556 1148.463257,434.653625 1155.660156,438.034088 
M1047.976562,407.496704 
	C1047.976562,380.185333 1047.887085,352.873352 1048.066284,325.563141 
	C1048.095459,321.115021 1046.664062,319.520782 1042.323242,319.945435 
	C1039.518921,320.219727 1036.637207,320.253876 1033.841553,319.939392 
	C1029.134155,319.409851 1027.538452,320.984894 1027.581543,325.945801 
	C1027.817139,353.088623 1027.693604,380.234528 1027.693481,407.379395 
	C1027.693481,420.149048 1026.304565,421.329468 1013.501892,420.204834 
	C1009.601562,419.862274 1007.762756,417.919067 1007.631287,414.200958 
	C1007.513611,410.874329 1007.778503,407.518951 1007.429138,404.223480 
	C1007.294617,402.954193 1005.986389,400.826599 1005.117676,400.777588 
	C999.540222,400.462891 993.936279,400.616882 988.113220,400.616882 
	C988.113220,408.512543 987.598511,415.692657 988.239258,422.768127 
	C989.102600,432.302338 994.603394,438.402313 1004.068298,439.189331 
	C1013.778992,439.996765 1023.687500,439.798767 1033.392944,438.849304 
	C1040.832031,438.121552 1045.672485,432.813263 1046.927246,425.389648 
	C1047.862305,419.856873 1047.667969,414.133148 1047.976562,407.496704 
M1189.296143,166.067474 
	C1189.728516,162.572815 1187.813599,161.928589 1184.793335,161.950592 
	C1171.128784,162.050232 1157.463135,161.994125 1143.797852,161.994110 
	C1128.736084,161.994095 1128.736084,161.994095 1129.307129,177.230179 
	C1129.313354,177.396622 1129.320312,177.564331 1129.307739,177.729980 
	C1129.076172,180.766815 1130.555054,181.876343 1133.499268,181.807724 
	C1138.604614,181.688797 1143.714722,181.774719 1149.152466,181.774719 
	C1149.152466,183.921661 1149.152588,185.554092 1149.152588,187.186508 
	C1149.152710,214.017166 1149.152588,240.847809 1149.152588,267.678467 
	C1149.152588,282.047668 1149.157104,281.829132 1163.523438,282.125031 
	C1168.516113,282.227844 1169.619263,280.527893 1169.589722,275.856567 
	C1169.402954,246.360703 1169.495361,216.863052 1169.495483,187.365997 
	C1169.495483,185.609543 1169.495483,183.853104 1169.495483,181.776077 
	C1171.596802,181.776077 1173.071167,181.820602 1174.541992,181.767807 
	C1179.176270,181.601440 1185.734619,183.155029 1187.933472,180.744965 
	C1190.426025,178.012833 1189.012451,171.717072 1189.296143,166.067474 
M1235.367554,339.770233 
	C1236.782227,339.881958 1238.196777,339.993652 1239.812012,340.121216 
	C1239.812012,341.693146 1239.812134,342.841797 1239.812134,343.990479 
	C1239.812378,374.288879 1239.872437,404.587555 1239.738159,434.885345 
	C1239.721069,438.733185 1240.682373,440.447418 1244.766968,440.060944 
	C1247.901978,439.764343 1251.116699,439.729553 1254.243530,440.065979 
	C1258.881470,440.565033 1260.179810,438.846008 1260.147949,434.205048 
	C1259.944336,404.573944 1260.044434,374.940765 1260.044434,345.308258 
	C1260.044434,343.534576 1260.044434,341.760925 1260.044434,339.770233 
	C1262.109863,339.770233 1263.593506,339.773071 1265.077026,339.769775 
	C1280.886719,339.734680 1280.811523,339.738220 1280.020020,323.979156 
	C1279.864868,320.890991 1278.645264,319.955963 1275.758423,319.966736 
	C1258.445312,320.031433 1241.131592,320.023254 1223.818481,319.972473 
	C1221.170898,319.964722 1219.771484,320.782715 1219.862671,323.688507 
	C1219.993164,327.846283 1219.618896,332.040680 1220.056885,336.155884 
	C1220.196045,337.463226 1222.124634,339.426910 1223.432251,339.600708 
	C1227.031372,340.079102 1230.735229,339.768616 1235.367554,339.770233 
M1509.893677,255.499985 
	C1509.894165,262.990784 1509.994385,270.483551 1509.846436,277.971405 
	C1509.785889,281.037079 1510.965820,282.148712 1513.952637,282.038055 
	C1517.942261,281.890289 1521.948120,281.859528 1525.934570,282.045135 
	C1529.306396,282.202148 1530.159790,280.690186 1530.153564,277.557037 
	C1530.078613,240.436172 1530.082031,203.315033 1530.145386,166.194122 
	C1530.151001,162.876602 1529.085938,161.746140 1525.690186,162.293167 
	C1518.798218,163.403351 1511.854004,164.187790 1504.933716,165.123749 
	C1497.335205,166.151413 1497.336182,166.159897 1497.334961,174.021561 
	C1497.334595,176.185562 1497.467285,178.359406 1497.307373,180.511505 
	C1496.984985,184.846329 1498.436279,186.840637 1503.088013,185.627884 
	C1505.130371,185.095413 1507.312622,185.098740 1509.893677,184.806427 
	C1509.893677,208.287567 1509.893677,231.393768 1509.893677,255.499985 
z"/>
<path fill="#01BF16" opacity="1.000000" stroke="none" 
	d="
M257.954681,277.010864 
	C267.029541,229.207397 292.839844,194.023148 335.516144,171.758011 
	C418.080017,128.682678 521.791321,177.285614 541.990479,268.201538 
	C556.203125,332.172211 528.714966,395.021149 472.424194,427.258209 
	C386.917023,476.227142 276.629669,425.084534 258.810730,328.169403 
	C255.714233,311.327850 255.547028,294.400238 257.954681,277.010864 
M298.826782,295.471100 
	C293.568787,304.207214 294.513794,312.361328 301.976379,319.863800 
	C319.007935,336.986328 336.113739,354.035217 353.233032,371.070160 
	C364.105927,381.889557 373.461517,381.927582 384.205963,371.192993 
	C422.618225,332.815887 461.007172,294.415466 499.383453,256.002380 
	C500.905548,254.478806 502.391022,252.858246 503.582336,251.074966 
	C509.182556,242.691971 506.921326,231.653183 498.554382,226.026245 
	C490.734131,220.767029 481.751526,222.156525 473.862671,230.027588 
	C443.678223,260.143738 413.544830,290.311066 383.362183,320.428986 
	C373.717346,330.053162 363.768188,330.075409 354.146790,320.545959 
	C345.153046,311.638245 336.303223,302.583923 327.239075,293.748993 
	C318.374695,285.108765 307.665741,285.627808 298.826782,295.471100 
z"/>
<path fill="#030303" opacity="1.000000" stroke="none" 
	d="
M816.905579,270.948425 
	C816.905579,251.045288 816.905579,231.633255 816.905579,212.221237 
	C816.605591,212.158524 816.305664,212.095795 816.005676,212.033081 
	C815.662781,212.966095 815.207642,213.874130 814.993591,214.835831 
	C810.370850,235.608109 805.664917,256.363098 801.267822,277.183319 
	C800.401489,281.285522 798.333679,282.246185 794.665833,282.047333 
	C791.062073,281.851990 787.526550,282.738861 786.407532,277.339417 
	C782.156921,256.828217 777.500366,236.401093 772.976196,215.946838 
	C772.682068,214.617264 772.223694,213.324036 770.879517,212.180145 
	C770.879517,221.595123 770.879456,231.010101 770.879456,240.425079 
	C770.879456,252.254044 770.732178,264.085785 770.955383,275.910553 
	C771.039185,280.346710 769.798035,282.219910 765.035767,282.085480 
	C748.521545,281.619293 751.137512,284.385437 751.075867,268.085876 
	C750.950439,234.931946 751.035278,201.777176 751.040894,168.622757 
	C751.041992,162.077927 751.128418,162.005585 757.838928,161.995285 
	C762.004089,161.988907 766.200745,162.315613 770.326111,161.910416 
	C775.177368,161.433929 777.045959,163.505676 778.021240,168.048492 
	C782.976379,191.127701 788.192078,214.150940 793.577148,238.365616 
	C794.315735,236.469940 794.794250,235.587387 795.007080,234.644836 
	C799.987488,212.589935 805.065308,190.555542 809.795166,168.446762 
	C810.800964,163.745422 812.440735,161.404953 817.618652,161.901001 
	C822.241211,162.343842 826.947937,162.166016 831.602112,161.941666 
	C835.567871,161.750488 836.875122,163.427734 836.841919,167.247894 
	C836.717468,181.574844 836.792358,195.903549 836.792419,210.231583 
	C836.792419,232.056854 836.693420,253.882935 836.871338,275.706757 
	C836.909363,280.368652 835.633179,282.735992 830.653015,282.026001 
	C829.673279,281.886353 828.656616,282.009857 827.656982,282.005280 
	C815.259277,281.948761 817.039124,283.115112 816.905579,270.948425 
z"/>
<path fill="#040404" opacity="1.000000" stroke="none" 
	d="
M1374.325317,265.991821 
	C1374.325439,233.162369 1374.412598,200.830887 1374.231079,168.500931 
	C1374.203979,163.676346 1375.225220,161.720230 1380.542969,161.865814 
	C1393.540161,162.221664 1393.542969,161.962051 1397.974609,174.346573 
	C1404.291138,191.998932 1410.614868,209.648727 1417.730469,227.291504 
	C1417.848999,226.151398 1418.069580,225.011414 1418.070923,223.871185 
	C1418.092529,205.039230 1418.188599,186.206299 1418.007324,167.376068 
	C1417.967529,163.252487 1419.185547,161.581879 1423.403564,161.933212 
	C1426.879272,162.222717 1430.410522,162.176392 1433.894409,161.941422 
	C1437.489380,161.698944 1438.452026,163.251694 1438.444580,166.629623 
	C1438.363281,203.460114 1438.356079,240.290939 1438.453857,277.121338 
	C1438.463501,280.732910 1437.450073,282.066406 1433.646362,282.092285 
	C1419.505371,282.188385 1419.507568,282.315582 1414.704346,269.021362 
	C1408.393921,251.555191 1402.081299,234.089844 1394.993652,216.597839 
	C1394.902710,218.063904 1394.734009,219.529877 1394.732544,220.996033 
	C1394.714355,239.328018 1394.562134,257.662292 1394.825439,275.990509 
	C1394.896118,280.916382 1393.272705,282.565765 1388.523438,282.069580 
	C1385.391235,281.742371 1382.186646,281.847351 1379.033447,282.050964 
	C1375.610596,282.271973 1374.113525,281.009735 1374.287476,277.487305 
	C1374.468140,273.829926 1374.326172,270.156647 1374.325317,265.991821 
z"/>
<path fill="#010101" opacity="1.000000" stroke="none" 
	d="
M1614.757324,374.950195 
	C1614.757568,357.971039 1614.876343,341.480499 1614.673340,324.993927 
	C1614.623779,320.965790 1615.927124,319.583710 1619.848389,319.944702 
	C1622.821289,320.218323 1625.864624,320.245667 1628.831665,319.942383 
	C1633.533325,319.461731 1635.156372,321.036530 1635.126221,326.006927 
	C1634.918579,360.482819 1635.016846,394.960541 1635.016724,429.437683 
	C1635.016724,431.602905 1634.906128,433.775055 1635.041748,435.931732 
	C1635.233643,438.985016 1633.851807,440.247986 1630.895020,440.002045 
	C1630.729614,439.988281 1630.561890,439.996460 1630.395508,440.001465 
	C1615.949829,440.436523 1615.944214,440.438568 1611.055542,426.827362 
	C1604.778320,409.349731 1598.511108,391.868439 1591.430542,374.439606 
	C1591.325073,375.588287 1591.128906,376.736877 1591.127808,377.885620 
	C1591.108521,396.873047 1591.023438,415.861237 1591.189331,434.847198 
	C1591.222778,438.677032 1590.268433,440.092896 1586.180542,440.095520 
	C1570.902954,440.105347 1570.902832,440.247162 1570.902954,425.175964 
	C1570.903076,392.031250 1571.000610,358.885956 1570.794189,325.742523 
	C1570.764526,320.986969 1572.257080,319.754486 1576.777710,319.919342 
	C1593.011841,320.511261 1588.811523,317.282043 1594.271729,332.147217 
	C1600.283325,348.513275 1606.109009,364.947601 1612.031738,381.346375 
	C1612.505737,382.658966 1613.105225,383.926331 1614.757324,385.098022 
	C1614.757324,381.878784 1614.757324,378.659515 1614.757324,374.950195 
z"/>
<path fill="#050505" opacity="1.000000" stroke="none" 
	d="
M933.323547,228.999817 
	C933.323730,208.176453 933.436890,187.851974 933.235962,167.530609 
	C933.191956,163.073410 934.683655,161.801865 939.005981,161.904541 
	C949.994324,162.165573 960.994080,161.899124 971.987427,162.013733 
	C988.192871,162.182678 995.004089,169.101242 995.056885,185.304443 
	C995.095459,197.131790 995.127747,208.959991 995.027954,220.786667 
	C994.959106,228.942017 992.336426,235.827652 984.129700,240.009338 
	C987.222900,251.842163 990.304871,263.677521 993.413574,275.505890 
	C995.115723,281.982635 995.123474,281.994202 988.609436,282.008698 
	C974.953308,282.039154 974.930237,282.045380 971.425781,269.047577 
	C969.479248,261.827881 967.412476,254.629929 965.810242,247.332108 
	C964.886353,243.123993 963.258362,240.780777 958.570312,241.736099 
	C957.169067,242.021652 955.660522,241.780243 953.721924,241.780243 
	C953.721924,253.436798 953.499573,264.718689 953.824524,275.984772 
	C953.966980,280.923981 952.245544,282.588562 947.501038,282.065155 
	C944.703125,281.756470 941.820801,281.781982 939.016663,282.061279 
	C934.694275,282.491821 933.169739,280.942230 933.235229,276.475372 
	C933.464661,260.819763 933.323853,245.158768 933.323547,228.999817 
M954.620178,221.948212 
	C959.102478,221.963806 963.586609,221.906998 968.066650,222.015762 
	C972.389771,222.120697 974.708435,220.009094 974.764709,215.812363 
	C974.889343,206.517075 975.051636,197.206726 974.601868,187.931442 
	C974.503662,185.905685 972.103516,182.531387 970.429382,182.310501 
	C964.968262,181.589996 959.352600,182.040497 953.822510,182.040497 
	C953.822510,195.480713 953.822510,208.427551 954.620178,221.948212 
z"/>
<path fill="#050505" opacity="1.000000" stroke="none" 
	d="
M829.323547,339.001678 
	C829.324219,333.837799 829.412720,329.171204 829.294250,324.509827 
	C829.217041,321.471802 830.102966,319.900055 833.526489,319.941650 
	C845.685181,320.089325 857.854858,319.751343 870.004517,320.119415 
	C884.201538,320.549500 890.889099,327.617950 891.035522,341.826813 
	C891.162598,354.152740 891.126831,366.481628 891.026978,378.808105 
	C890.960876,386.965881 888.318481,393.844757 880.128479,398.012482 
	C883.225769,409.856659 886.309937,421.694977 889.420166,433.526398 
	C891.117310,439.982544 891.124329,439.994720 884.587830,440.008759 
	C870.952026,440.038086 870.945190,440.039917 867.412048,427.028931 
	C865.019165,418.217163 862.649963,409.398987 860.261047,400.586151 
	C860.220825,400.437775 860.064392,400.320923 859.803284,399.984802 
	C856.705261,399.984802 853.448181,399.984802 849.722290,399.984802 
	C849.722290,410.788635 849.722839,421.399506 849.722046,432.010406 
	C849.721497,440.008606 849.720703,440.008636 841.486511,440.008728 
	C838.987732,440.008759 836.476868,439.853333 833.993103,440.046143 
	C830.536926,440.314423 829.177368,438.936432 829.279358,435.453064 
	C829.449768,429.627625 829.323730,423.793457 829.323669,417.962982 
	C829.323425,391.809052 829.323547,365.655090 829.323547,339.001678 
M870.296631,376.395386 
	C870.435364,365.946106 870.786926,355.491028 870.501892,345.053314 
	C870.454773,343.326477 867.772400,340.427216 866.051270,340.222076 
	C860.720459,339.586700 855.265808,339.989777 849.949646,339.989777 
	C849.949646,353.529053 849.949646,366.586243 849.949646,379.966522 
	C855.133972,379.966522 860.106812,380.199341 865.036255,379.838776 
	C866.734497,379.714539 868.324463,378.111115 870.296631,376.395386 
z"/>
<path fill="#040404" opacity="1.000000" stroke="none" 
	d="
M1204.698364,215.999512 
	C1204.698608,199.341248 1204.816284,183.181519 1204.615601,167.025772 
	C1204.566040,163.036530 1205.839355,161.632080 1209.759521,161.935410 
	C1213.236816,162.204483 1216.763672,162.173782 1220.246460,161.943039 
	C1224.064209,161.690125 1225.100464,163.372086 1225.066528,166.960480 
	C1224.926758,181.767288 1225.007935,196.576187 1225.007935,211.687744 
	C1231.409180,211.687744 1237.630127,211.687744 1244.303589,211.687744 
	C1244.303589,197.356567 1244.300903,183.088593 1244.304810,168.820633 
	C1244.306763,161.996384 1244.312500,161.995850 1251.198853,161.992096 
	C1254.030762,161.990555 1256.881348,162.198593 1259.689941,161.942841 
	C1263.776245,161.570770 1264.766846,163.427597 1264.756348,167.209366 
	C1264.655029,203.690094 1264.642090,240.171402 1264.769409,276.651978 
	C1264.783813,280.791565 1263.501099,282.416901 1259.326294,282.064331 
	C1256.018311,281.785034 1252.650024,281.791382 1249.340820,282.063446 
	C1245.273315,282.397797 1244.202637,280.615845 1244.242065,276.813721 
	C1244.395508,262.011749 1244.304565,247.207245 1244.304565,232.100281 
	C1237.848999,232.100281 1231.635864,232.100281 1225.008057,232.100281 
	C1225.008057,246.642212 1224.817505,261.098816 1225.113403,275.545441 
	C1225.214478,280.478302 1223.959839,282.702515 1218.736328,282.072479 
	C1215.781006,281.715973 1212.729004,281.799286 1209.753418,282.059753 
	C1205.822266,282.403839 1204.581909,280.944427 1204.616943,276.967224 
	C1204.794922,256.812653 1204.698608,236.655655 1204.698364,215.999512 
z"/>
<path fill="#030303" opacity="1.000000" stroke="none" 
	d="
M1473.556396,335.817688 
	C1473.836914,350.373444 1474.022705,364.519226 1474.095947,378.665558 
	C1474.163086,391.653351 1474.173096,404.642181 1474.091553,417.629822 
	C1473.998291,432.492340 1467.359009,439.540161 1452.665283,439.921722 
	C1441.183472,440.219818 1429.687134,439.915649 1418.199463,440.054016 
	C1414.800781,440.094971 1413.991577,438.600677 1413.997070,435.513153 
	C1414.063477,398.547058 1414.059448,361.580750 1414.003296,324.614624 
	C1413.998779,321.636566 1414.603760,319.903839 1418.100830,319.950409 
	C1430.086914,320.110016 1442.087280,319.764709 1454.059814,320.211121 
	C1465.364136,320.632629 1471.070435,325.483490 1473.556396,335.817688 
M1454.477539,362.503418 
	C1454.452881,357.007782 1454.490967,351.510925 1454.382324,346.016968 
	C1454.304321,342.072510 1452.363037,339.798035 1448.211304,339.802612 
	C1443.747681,339.807556 1439.284180,339.803711 1434.590454,339.803711 
	C1434.590454,366.752747 1434.590454,393.309204 1434.590454,420.238892 
	C1438.503906,420.238892 1442.145874,420.262817 1445.787476,420.233856 
	C1453.228760,420.174713 1454.443970,419.001282 1454.464355,411.471924 
	C1454.507446,395.482178 1454.477539,379.492188 1454.477539,362.503418 
z"/>
<path fill="#040404" opacity="1.000000" stroke="none" 
	d="
M1552.695801,409.982117 
	C1552.539185,414.637207 1552.607300,418.819305 1552.179810,422.950073 
	C1551.247070,431.961945 1546.118286,438.169037 1537.189941,439.037994 
	C1527.807007,439.951172 1518.206665,440.084045 1508.828857,439.201965 
	C1498.781860,438.256866 1493.077148,431.458618 1492.943115,421.264709 
	C1492.636353,397.937286 1492.742920,374.604309 1492.708618,351.273560 
	C1492.702271,346.942047 1492.662842,342.601013 1492.915894,338.280609 
	C1493.481201,328.621887 1498.795410,321.848419 1508.307373,320.935974 
	C1517.846313,320.020935 1527.606201,320.083923 1537.153564,320.966858 
	C1546.085938,321.792908 1551.554443,328.006470 1552.111938,337.019623 
	C1552.748779,347.315094 1552.617676,357.662537 1552.676392,367.988220 
	C1552.755127,381.820343 1552.695801,395.653229 1552.695801,409.982117 
M1531.750977,340.921021 
	C1527.732544,340.338776 1523.724243,339.375000 1519.693237,339.268555 
	C1514.363037,339.127777 1512.449219,341.075439 1512.424072,346.493195 
	C1512.320312,368.773651 1512.324219,391.055115 1512.417725,413.335663 
	C1512.441650,419.059479 1514.268555,420.655060 1519.982910,420.821564 
	C1521.478027,420.865112 1522.975708,420.836945 1524.472168,420.828339 
	C1532.046875,420.784760 1533.369629,419.482880 1533.379517,411.735046 
	C1533.406250,390.618073 1533.422607,369.500885 1533.339355,348.384186 
	C1533.330444,346.128113 1532.636963,343.874756 1531.750977,340.921021 
z"/>
<path fill="#030303" opacity="1.000000" stroke="none" 
	d="
M950.575317,439.787964 
	C942.141968,439.731873 934.100220,440.232391 926.199402,439.398438 
	C915.957458,438.317413 910.380310,432.245453 909.796448,421.908783 
	C909.215332,411.621887 909.342407,401.288727 909.353760,390.976074 
	C909.372925,373.506042 909.191467,356.024200 909.782166,338.570587 
	C910.152710,327.623016 915.979431,321.458008 926.714905,320.548553 
	C935.448608,319.808655 944.375427,319.852783 953.089233,320.765198 
	C963.140381,321.817627 968.868591,328.482086 969.051331,338.623688 
	C969.393066,357.590088 969.263672,376.565094 969.306702,395.536591 
	C969.324463,403.358459 969.449768,411.185211 969.228210,419.001312 
	C968.859680,432.002441 963.948608,437.472076 950.575317,439.787964 
M950.081116,354.523407 
	C950.080933,352.190430 950.100220,349.857300 950.076721,347.524536 
	C950.008789,340.779114 948.542542,339.281433 941.921692,339.175842 
	C940.588928,339.154602 939.255493,339.163239 937.922424,339.175262 
	C930.705994,339.240387 929.154907,340.767365 929.147034,348.030029 
	C929.125305,368.026794 929.138794,388.023529 929.138794,408.020294 
	C929.138855,420.641815 929.516663,421.019806 941.931335,420.827271 
	C948.593079,420.723969 950.058167,419.286804 950.069519,412.507263 
	C950.101196,393.510406 950.080933,374.513458 950.081116,354.523407 
z"/>
<path fill="#020202" opacity="1.000000" stroke="none" 
	d="
M1599.463623,279.705261 
	C1586.997803,283.298615 1574.699829,283.008484 1562.592407,280.470581 
	C1554.921997,278.862732 1550.151855,272.003540 1550.077515,263.202942 
	C1549.845459,235.730911 1549.796387,208.253571 1550.093994,180.782791 
	C1550.206177,170.441345 1556.251709,163.668472 1566.488281,162.690216 
	C1575.377686,161.840683 1584.474609,161.885147 1593.369507,162.715576 
	C1603.005127,163.615158 1607.980957,169.286224 1609.491577,178.943130 
	C1609.824463,181.071701 1609.954712,183.252213 1609.957520,185.409088 
	C1609.988770,209.886719 1610.026611,234.364578 1609.950073,258.842010 
	C1609.923584,267.307831 1608.397949,275.189392 1599.463623,279.705261 
M1569.842407,257.014648 
	C1569.949585,260.960480 1572.284912,262.633087 1575.923584,262.780273 
	C1578.745239,262.894440 1581.576660,262.860413 1584.401245,262.792145 
	C1588.414795,262.695129 1590.663086,260.507111 1590.676270,256.565430 
	C1590.753418,233.620270 1590.752563,210.674652 1590.697632,187.729385 
	C1590.687622,183.558960 1588.392578,181.298935 1584.154663,181.190750 
	C1582.492920,181.148346 1580.829468,181.164383 1579.166870,181.168839 
	C1570.935181,181.190903 1569.768188,182.359314 1569.764404,190.758331 
	C1569.754639,212.540329 1569.766724,234.322311 1569.842407,257.014648 
z"/>
<path fill="#010101" opacity="1.000000" stroke="none" 
	d="
M856.426147,269.277161 
	C855.860779,264.947357 855.116516,260.987457 855.097656,257.024139 
	C854.986084,233.549500 855.016785,210.073990 855.074890,186.598938 
	C855.082275,183.619293 855.296936,180.599564 855.816467,177.669479 
	C857.311523,169.237625 862.041260,163.791336 870.479553,162.994492 
	C879.860046,162.108673 889.441956,161.928741 898.814941,162.778458 
	C908.796448,163.683319 914.773010,170.458389 914.888245,180.590057 
	C915.202393,208.222610 915.208984,235.863693 914.878845,263.495911 
	C914.757996,273.615845 908.743103,280.298706 898.735901,281.256927 
	C889.687317,282.123322 880.460754,281.848938 871.364380,281.267853 
	C864.185364,280.809265 859.048706,276.653503 856.426147,269.277161 
M891.586060,181.518143 
	C889.267212,181.401627 886.948669,181.191742 884.629517,181.185349 
	C876.217896,181.162201 875.016357,182.348221 875.013550,190.542236 
	C875.006775,210.174667 875.102600,229.807678 874.978821,249.439331 
	C874.896667,262.461182 874.387512,263.168915 889.053467,262.799011 
	C894.119690,262.671234 895.883118,260.839813 895.897034,255.668564 
	C895.957703,233.207901 896.020081,210.745895 895.768616,188.287872 
	C895.744141,186.106216 893.565979,183.948669 891.586060,181.518143 
z"/>
<path fill="#030303" opacity="1.000000" stroke="none" 
	d="
M1355.091309,341.186035 
	C1355.106567,346.324554 1354.993042,350.991455 1355.150391,355.649200 
	C1355.247559,358.528717 1354.417725,360.034210 1351.258789,359.926483 
	C1347.100220,359.784760 1342.930054,359.792267 1338.770752,359.924316 
	C1335.639771,360.023712 1334.702026,358.547363 1334.856079,355.650909 
	C1335.015015,352.661835 1334.855225,349.657104 1334.891724,346.659943 
	C1334.946167,342.202393 1332.918823,340.000427 1328.326660,339.749756 
	C1316.540894,339.106567 1315.292847,340.142822 1315.351562,351.849731 
	C1315.375732,356.650055 1313.906860,362.683990 1316.234619,365.900635 
	C1318.546631,369.095428 1324.755859,369.513672 1329.291260,371.045135 
	C1336.212280,373.381989 1343.149780,375.672028 1350.107788,377.895966 
	C1353.578735,379.005371 1355.195557,381.131256 1355.151489,384.884766 
	C1355.012817,396.707184 1355.256226,408.536255 1354.984619,420.354309 
	C1354.728760,431.483093 1348.820435,438.552460 1337.896973,439.429047 
	C1328.672119,440.169312 1319.255615,439.886810 1310.038574,438.940613 
	C1302.139038,438.129669 1297.034180,432.731293 1296.002075,424.831238 
	C1295.080444,417.775940 1295.196899,410.568451 1295.194458,403.428009 
	C1295.194092,402.385803 1296.971802,401.188995 1298.140259,400.367188 
	C1298.699829,399.973663 1299.759155,400.268494 1300.591187,400.288391 
	C1305.072998,400.395508 1310.877319,398.885132 1313.634277,401.123718 
	C1316.010376,403.053040 1315.025024,409.250061 1315.323853,413.574188 
	C1315.627808,417.971924 1317.630249,420.093292 1322.215576,420.271942 
	C1333.910034,420.727448 1334.890137,419.929596 1334.890259,408.455750 
	C1334.890259,403.803619 1334.890259,399.151459 1334.890259,394.247589 
	C1323.569580,390.506378 1312.454834,386.641388 1301.208008,383.208740 
	C1296.564575,381.791504 1294.885620,379.198242 1294.976440,374.499939 
	C1295.179199,364.012024 1294.961670,353.516754 1295.059570,343.025848 
	C1295.207397,327.193359 1302.146362,320.251312 1318.007690,320.015961 
	C1323.666992,319.932007 1329.344360,319.823944 1334.987549,320.161285 
	C1348.232178,320.952972 1354.404663,327.395721 1355.091309,341.186035 
z"/>
<path fill="#020202" opacity="1.000000" stroke="none" 
	d="
M1332.138672,163.756271 
	C1340.484375,201.844742 1348.688843,239.533936 1356.935425,277.213898 
	C1357.656494,280.508331 1357.088257,282.369965 1353.154663,282.048798 
	C1350.341064,281.819061 1347.493408,282.004425 1344.661011,282.004242 
	C1337.313110,282.003754 1337.334717,281.999725 1335.971313,274.555939 
	C1334.984131,269.165497 1333.929810,263.787384 1332.869873,258.217224 
	C1323.979736,258.217224 1315.187378,258.217224 1305.915039,258.217224 
	C1304.709106,264.426392 1303.178833,270.697327 1302.366333,277.059937 
	C1301.835449,281.218048 1299.954834,282.358795 1296.125610,282.058289 
	C1292.813721,281.798340 1289.439697,281.743500 1286.139282,282.067932 
	C1281.645752,282.509644 1281.175903,280.540283 1281.998169,276.778503 
	C1290.057495,239.906494 1298.040771,203.017822 1305.976074,166.118896 
	C1306.599243,163.221527 1307.806641,161.821091 1310.985352,161.937546 
	C1316.642700,162.144775 1322.315186,161.910706 1327.976318,162.057816 
	C1329.330811,162.093002 1330.665039,162.901627 1332.138672,163.756271 
M1311.934448,228.257553 
	C1311.197021,232.278702 1310.459717,236.299835 1309.670166,240.605957 
	C1316.383789,240.605957 1322.483032,240.605957 1329.085449,240.605957 
	C1327.475098,231.900635 1325.908936,223.465759 1324.355469,215.028595 
	C1322.811279,206.641571 1321.280151,198.252167 1319.743164,189.863800 
	C1319.485840,189.847382 1319.228638,189.830948 1318.971436,189.814514 
	C1316.660645,202.344528 1314.349731,214.874542 1311.934448,228.257553 
z"/>
<path fill="#020202" opacity="1.000000" stroke="none" 
	d="
M751.041443,398.000000 
	C751.041565,373.523376 751.142944,349.545959 750.950623,325.570892 
	C750.915039,321.129242 752.335876,319.801422 756.677429,319.912262 
	C766.993958,320.175537 777.322205,319.940002 787.645020,320.010254 
	C804.256653,320.123322 811.045532,326.895844 811.099731,343.351349 
	C811.136963,354.673523 811.163879,365.996246 811.091614,377.318085 
	C810.995605,392.344482 804.330933,399.202301 789.219360,399.731079 
	C783.430359,399.933655 777.628357,399.764069 771.326660,399.764069 
	C771.326660,411.470276 771.086975,422.757782 771.437317,434.026947 
	C771.590698,438.962280 769.938904,440.602448 765.197205,440.061279 
	C762.403015,439.742340 759.521606,439.783844 756.717041,440.053894 
	C752.411316,440.468536 750.845398,438.953003 750.948181,434.462830 
	C751.222534,422.480804 751.041504,410.488312 751.041443,398.000000 
M790.909485,356.514648 
	C790.893860,352.848999 790.981079,349.179199 790.832886,345.518890 
	C790.691162,342.018616 788.851440,339.920288 785.202271,339.867157 
	C780.739197,339.802185 776.274475,339.851685 771.648865,339.851685 
	C771.648865,353.399506 771.648865,366.607025 771.648865,379.855499 
	C772.651428,379.922272 773.312683,380.001831 773.974243,380.004364 
	C777.306946,380.017242 780.641113,380.070984 783.972107,379.995667 
	C789.055969,379.880707 790.776062,378.188843 790.884216,373.005981 
	C790.992004,367.842468 790.908875,362.675018 790.909485,356.514648 
z"/>
<path fill="#040404" opacity="1.000000" stroke="none" 
	d="
M1033.543213,211.504868 
	C1042.361572,211.898087 1050.856812,212.084625 1059.345825,211.927048 
	C1062.912354,211.860825 1064.325928,212.811584 1064.366089,216.665894 
	C1064.525269,231.947433 1064.649048,231.946152 1049.468384,231.946152 
	C1044.178223,231.946152 1038.888062,231.946136 1033.378418,231.946136 
	C1033.378418,242.122284 1033.378418,251.868454 1033.378418,262.222443 
	C1044.257202,262.222443 1055.020142,262.222015 1065.783081,262.222565 
	C1073.171143,262.222961 1073.171143,262.223572 1073.172974,269.360016 
	C1073.176270,282.006866 1073.176270,282.006897 1060.275391,282.006897 
	C1046.282227,282.006897 1032.287964,281.911377 1018.296570,282.072266 
	C1014.680298,282.113861 1013.260681,281.056885 1013.270569,277.276215 
	C1013.366760,240.461029 1013.363220,203.645386 1013.273254,166.830170 
	C1013.264282,163.170227 1014.447632,161.887283 1018.188110,161.923035 
	C1035.011719,162.083832 1051.838379,162.070038 1068.662476,161.930405 
	C1072.158081,161.901398 1073.458862,163.034958 1073.226196,166.537521 
	C1072.983643,170.186295 1072.969727,173.878006 1073.228149,177.524567 
	C1073.488647,181.197906 1071.837402,182.039490 1068.513306,181.999771 
	C1056.889893,181.860870 1045.264038,181.945999 1033.217651,181.945999 
	C1033.217651,191.939026 1033.217651,201.549103 1033.543213,211.504868 
z"/>
<path fill="#040404" opacity="1.000000" stroke="none" 
	d="
M1691.000732,420.222473 
	C1698.598633,420.222473 1705.696899,420.222473 1713.168701,420.222473 
	C1713.168701,426.275085 1713.395630,431.435974 1713.004028,436.549469 
	C1712.909668,437.781799 1710.778320,439.841675 1709.563110,439.856720 
	C1692.076172,440.073486 1674.585327,439.953613 1657.096191,440.046143 
	C1653.299072,440.066254 1653.317505,437.727905 1653.319824,435.076752 
	C1653.335449,417.420502 1653.326904,399.764282 1653.326782,382.108032 
	C1653.326660,363.285797 1653.433350,344.462524 1653.246582,325.642151 
	C1653.203979,321.358368 1654.381958,319.829559 1658.875732,319.896240 
	C1675.362305,320.140778 1691.855591,320.078735 1708.344482,319.926392 
	C1711.975708,319.892853 1713.530518,320.897339 1713.233276,324.719818 
	C1712.950073,328.362305 1713.001831,332.054260 1713.221069,335.705566 
	C1713.422363,339.057709 1712.003418,340.026550 1708.833984,339.993744 
	C1697.179565,339.873016 1685.523193,339.945862 1673.508667,339.945862 
	C1673.508667,349.827301 1673.508667,359.554688 1673.508667,369.993103 
	C1681.570190,369.993103 1689.837158,370.320648 1698.062378,369.874786 
	C1703.303589,369.590637 1704.505859,371.433624 1704.394165,376.388519 
	C1704.088745,389.941284 1704.306030,389.946167 1690.750366,389.946167 
	C1685.097778,389.946167 1679.445190,389.946167 1673.471680,389.946167 
	C1673.471680,400.033844 1673.471680,409.908142 1673.471680,420.222443 
	C1679.252441,420.222443 1684.876831,420.222443 1691.000732,420.222473 
z"/>
<path fill="#020202" opacity="1.000000" stroke="none" 
	d="
M1124.472656,439.738647 
	C1106.209351,439.940674 1088.379150,439.899658 1070.550903,440.063080 
	C1066.953125,440.096008 1065.988525,438.668518 1065.995361,435.317413 
	C1066.069458,398.489410 1066.080933,361.661072 1065.981812,324.833160 
	C1065.971924,321.135162 1067.184692,319.897339 1070.896851,319.930786 
	C1087.726440,320.082336 1104.558594,320.057983 1121.388794,319.945709 
	C1124.741333,319.923340 1126.336182,320.840576 1126.086426,324.474915 
	C1125.835693,328.123871 1125.845093,331.815613 1126.083618,335.466156 
	C1126.321289,339.102539 1124.695435,340.029907 1121.353027,339.991882 
	C1109.728394,339.859680 1098.101074,339.940826 1086.248535,339.940826 
	C1086.248535,350.033905 1086.248535,359.776398 1086.248535,369.996979 
	C1094.952271,369.996979 1103.566650,370.125732 1112.174072,369.935486 
	C1115.770020,369.856079 1117.430786,370.887970 1117.145142,374.730927 
	C1116.886353,378.211182 1116.883911,381.741455 1117.145752,385.221252 
	C1117.436401,389.082733 1115.739136,390.080811 1112.162598,390.001984 
	C1103.674561,389.814880 1095.179688,389.941772 1086.353394,389.941772 
	C1086.353394,399.946503 1086.353394,409.834076 1086.353394,420.228333 
	C1097.623413,420.228333 1108.895630,420.408569 1120.157227,420.139038 
	C1124.619141,420.032227 1126.722900,421.130585 1126.080322,425.954956 
	C1125.479614,430.464600 1125.281494,435.027893 1124.472656,439.738647 
z"/>
<path fill="#050505" opacity="1.000000" stroke="none" 
	d="
M1155.302368,437.894684 
	C1148.463257,434.653625 1145.033936,429.294556 1144.810425,422.333710 
	C1144.393555,409.362061 1144.354492,396.374939 1144.350342,383.394226 
	C1144.345581,368.414551 1144.184326,353.420227 1144.784302,338.460052 
	C1145.212280,327.786591 1150.900879,321.516022 1161.389771,320.647644 
	C1170.771973,319.870880 1180.335083,320.251251 1189.735596,321.070648 
	C1196.535522,321.663361 1201.868896,326.095093 1202.993286,332.875397 
	C1204.442505,341.613098 1204.418091,350.595154 1205.069702,360.073364 
	C1198.313232,360.073364 1192.843750,360.229858 1187.401123,359.917969 
	C1186.502808,359.866486 1185.113647,357.819153 1185.001221,356.597565 
	C1184.666992,352.964172 1184.958740,349.278442 1184.811035,345.621033 
	C1184.670776,342.152466 1182.897583,340.048645 1179.240356,339.881714 
	C1178.907959,339.866577 1178.577393,339.817719 1178.245117,339.796509 
	C1165.728882,338.996185 1164.883667,339.785736 1164.883667,352.273071 
	C1164.883667,371.920410 1164.872314,391.567780 1164.889160,411.215118 
	C1164.895996,419.216675 1165.853149,420.170410 1173.731812,420.213104 
	C1175.561890,420.223053 1177.393433,420.181396 1179.222778,420.121094 
	C1182.879517,420.000488 1184.679565,417.926422 1184.811035,414.431732 
	C1184.948730,410.773590 1184.620972,407.079742 1185.021362,403.459534 
	C1185.162231,402.186768 1186.793823,400.136963 1187.852539,400.066589 
	C1193.129517,399.716003 1198.442505,399.906342 1205.105225,399.906342 
	C1204.403564,409.532349 1204.311157,418.653839 1202.888306,427.562866 
	C1201.937866,433.513031 1197.134033,437.625824 1191.250000,438.673035 
	C1179.419312,440.778534 1167.467041,441.253693 1155.302368,437.894684 
z"/>
<path fill="#020202" opacity="1.000000" stroke="none" 
	d="
M1047.976562,407.995605 
	C1047.667969,414.133148 1047.862305,419.856873 1046.927246,425.389648 
	C1045.672485,432.813263 1040.832031,438.121552 1033.392944,438.849304 
	C1023.687500,439.798767 1013.778992,439.996765 1004.068298,439.189331 
	C994.603394,438.402313 989.102600,432.302338 988.239258,422.768127 
	C987.598511,415.692657 988.113220,408.512543 988.113220,400.616882 
	C993.936279,400.616882 999.540222,400.462891 1005.117676,400.777588 
	C1005.986389,400.826599 1007.294617,402.954193 1007.429138,404.223480 
	C1007.778503,407.518951 1007.513611,410.874329 1007.631287,414.200958 
	C1007.762756,417.919067 1009.601562,419.862274 1013.501892,420.204834 
	C1026.304565,421.329468 1027.693481,420.149048 1027.693481,407.379395 
	C1027.693604,380.234528 1027.817139,353.088623 1027.581543,325.945801 
	C1027.538452,320.984894 1029.134155,319.409851 1033.841553,319.939392 
	C1036.637207,320.253876 1039.518921,320.219727 1042.323242,319.945435 
	C1046.664062,319.520782 1048.095459,321.115021 1048.066284,325.563141 
	C1047.887085,352.873352 1047.976562,380.185333 1047.976562,407.995605 
z"/>
<path fill="#030303" opacity="1.000000" stroke="none" 
	d="
M1189.296631,166.519073 
	C1189.012451,171.717072 1190.426025,178.012833 1187.933472,180.744965 
	C1185.734619,183.155029 1179.176270,181.601440 1174.541992,181.767807 
	C1173.071167,181.820602 1171.596802,181.776077 1169.495483,181.776077 
	C1169.495483,183.853104 1169.495483,185.609543 1169.495483,187.365997 
	C1169.495361,216.863052 1169.402954,246.360703 1169.589722,275.856567 
	C1169.619263,280.527893 1168.516113,282.227844 1163.523438,282.125031 
	C1149.157104,281.829132 1149.152588,282.047668 1149.152588,267.678467 
	C1149.152588,240.847809 1149.152710,214.017166 1149.152588,187.186508 
	C1149.152588,185.554092 1149.152466,183.921661 1149.152466,181.774719 
	C1143.714722,181.774719 1138.604614,181.688797 1133.499268,181.807724 
	C1130.555054,181.876343 1129.076172,180.766815 1129.307739,177.729980 
	C1129.320312,177.564331 1129.313354,177.396622 1129.307129,177.230179 
	C1128.736084,161.994095 1128.736084,161.994095 1143.797852,161.994110 
	C1157.463135,161.994125 1171.128784,162.050232 1184.793335,161.950592 
	C1187.813599,161.928589 1189.728516,162.572815 1189.296631,166.519073 
z"/>
<path fill="#010101" opacity="1.000000" stroke="none" 
	d="
M1234.882568,339.770203 
	C1230.735229,339.768616 1227.031372,340.079102 1223.432251,339.600708 
	C1222.124634,339.426910 1220.196045,337.463226 1220.056885,336.155884 
	C1219.618896,332.040680 1219.993164,327.846283 1219.862671,323.688507 
	C1219.771484,320.782715 1221.170898,319.964722 1223.818481,319.972473 
	C1241.131592,320.023254 1258.445312,320.031433 1275.758423,319.966736 
	C1278.645264,319.955963 1279.864868,320.890991 1280.020020,323.979156 
	C1280.811523,339.738220 1280.886719,339.734680 1265.077026,339.769775 
	C1263.593506,339.773071 1262.109863,339.770233 1260.044434,339.770233 
	C1260.044434,341.760925 1260.044434,343.534576 1260.044434,345.308258 
	C1260.044434,374.940765 1259.944336,404.573944 1260.147949,434.205048 
	C1260.179810,438.846008 1258.881470,440.565033 1254.243530,440.065979 
	C1251.116699,439.729553 1247.901978,439.764343 1244.766968,440.060944 
	C1240.682373,440.447418 1239.721069,438.733185 1239.738159,434.885345 
	C1239.872437,404.587555 1239.812378,374.288879 1239.812134,343.990479 
	C1239.812134,342.841797 1239.812012,341.693146 1239.812012,340.121216 
	C1238.196777,339.993652 1236.782227,339.881958 1234.882568,339.770203 
z"/>
<path fill="#010101" opacity="1.000000" stroke="none" 
	d="
M1509.893677,254.999969 
	C1509.893677,231.393768 1509.893677,208.287567 1509.893677,184.806427 
	C1507.312622,185.098740 1505.130371,185.095413 1503.088013,185.627884 
	C1498.436279,186.840637 1496.984985,184.846329 1497.307373,180.511505 
	C1497.467285,178.359406 1497.334595,176.185562 1497.334961,174.021561 
	C1497.336182,166.159897 1497.335205,166.151413 1504.933716,165.123749 
	C1511.854004,164.187790 1518.798218,163.403351 1525.690186,162.293167 
	C1529.085938,161.746140 1530.151001,162.876602 1530.145386,166.194122 
	C1530.082031,203.315033 1530.078613,240.436172 1530.153564,277.557037 
	C1530.159790,280.690186 1529.306396,282.202148 1525.934570,282.045135 
	C1521.948120,281.859528 1517.942261,281.890289 1513.952637,282.038055 
	C1510.965820,282.148712 1509.785889,281.037079 1509.846436,277.971405 
	C1509.994385,270.483551 1509.894165,262.990784 1509.893677,254.999969 
z"/>
<path fill="#FDFFFD" opacity="1.000000" stroke="none" 
	d="
M299.040405,295.169006 
	C307.665741,285.627808 318.374695,285.108765 327.239075,293.748993 
	C336.303223,302.583923 345.153046,311.638245 354.146790,320.545959 
	C363.768188,330.075409 373.717346,330.053162 383.362183,320.428986 
	C413.544830,290.311066 443.678223,260.143738 473.862671,230.027588 
	C481.751526,222.156525 490.734131,220.767029 498.554382,226.026245 
	C506.921326,231.653183 509.182556,242.691971 503.582336,251.074966 
	C502.391022,252.858246 500.905548,254.478806 499.383453,256.002380 
	C461.007172,294.415466 422.618225,332.815887 384.205963,371.192993 
	C373.461517,381.927582 364.105927,381.889557 353.233032,371.070160 
	C336.113739,354.035217 319.007935,336.986328 301.976379,319.863800 
	C294.513794,312.361328 293.568787,304.207214 299.040405,295.169006 
z"/>
<path fill="#FCFCFC" opacity="1.000000" stroke="none" 
	d="
M954.221313,221.661301 
	C953.822510,208.427551 953.822510,195.480713 953.822510,182.040497 
	C959.352600,182.040497 964.968262,181.589996 970.429382,182.310501 
	C972.103516,182.531387 974.503662,185.905685 974.601868,187.931442 
	C975.051636,197.206726 974.889343,206.517075 974.764709,215.812363 
	C974.708435,220.009094 972.389771,222.120697 968.066650,222.015762 
	C963.586609,221.906998 959.102478,221.963806 954.221313,221.661301 
z"/>
<path fill="#FCFCFC" opacity="1.000000" stroke="none" 
	d="
M870.130249,376.789398 
	C868.324463,378.111115 866.734497,379.714539 865.036255,379.838776 
	C860.106812,380.199341 855.133972,379.966522 849.949646,379.966522 
	C849.949646,366.586243 849.949646,353.529053 849.949646,339.989777 
	C855.265808,339.989777 860.720459,339.586700 866.051270,340.222076 
	C867.772400,340.427216 870.454773,343.326477 870.501892,345.053314 
	C870.786926,355.491028 870.435364,365.946106 870.130249,376.789398 
z"/>
<path fill="#FAFAFA" opacity="1.000000" stroke="none" 
	d="
M1454.477539,363.002869 
	C1454.477539,379.492188 1454.507446,395.482178 1454.464355,411.471924 
	C1454.443970,419.001282 1453.228760,420.174713 1445.787476,420.233856 
	C1442.145874,420.262817 1438.503906,420.238892 1434.590454,420.238892 
	C1434.590454,393.309204 1434.590454,366.752747 1434.590454,339.803711 
	C1439.284180,339.803711 1443.747681,339.807556 1448.211304,339.802612 
	C1452.363037,339.798035 1454.304321,342.072510 1454.382324,346.016968 
	C1454.490967,351.510925 1454.452881,357.007782 1454.477539,363.002869 
z"/>
<path fill="#F9F9F9" opacity="1.000000" stroke="none" 
	d="
M1532.005981,341.270569 
	C1532.636963,343.874756 1533.330444,346.128113 1533.339355,348.384186 
	C1533.422607,369.500885 1533.406250,390.618073 1533.379517,411.735046 
	C1533.369629,419.482880 1532.046875,420.784760 1524.472168,420.828339 
	C1522.975708,420.836945 1521.478027,420.865112 1519.982910,420.821564 
	C1514.268555,420.655060 1512.441650,419.059479 1512.417725,413.335663 
	C1512.324219,391.055115 1512.320312,368.773651 1512.424072,346.493195 
	C1512.449219,341.075439 1514.363037,339.127777 1519.693237,339.268555 
	C1523.724243,339.375000 1527.732544,340.338776 1532.005981,341.270569 
z"/>
<path fill="#FBFBFB" opacity="1.000000" stroke="none" 
	d="
M950.081116,355.019958 
	C950.080933,374.513458 950.101196,393.510406 950.069519,412.507263 
	C950.058167,419.286804 948.593079,420.723969 941.931335,420.827271 
	C929.516663,421.019806 929.138855,420.641815 929.138794,408.020294 
	C929.138794,388.023529 929.125305,368.026794 929.147034,348.030029 
	C929.154907,340.767365 930.705994,339.240387 937.922424,339.175262 
	C939.255493,339.163239 940.588928,339.154602 941.921692,339.175842 
	C948.542542,339.281433 950.008789,340.779114 950.076721,347.524536 
	C950.100220,349.857300 950.080933,352.190430 950.081116,355.019958 
z"/>
<path fill="#FAFAFA" opacity="1.000000" stroke="none" 
	d="
M1569.806152,256.559479 
	C1569.766724,234.322311 1569.754639,212.540329 1569.764404,190.758331 
	C1569.768188,182.359314 1570.935181,181.190903 1579.166870,181.168839 
	C1580.829468,181.164383 1582.492920,181.148346 1584.154663,181.190750 
	C1588.392578,181.298935 1590.687622,183.558960 1590.697632,187.729385 
	C1590.752563,210.674652 1590.753418,233.620270 1590.676270,256.565430 
	C1590.663086,260.507111 1588.414795,262.695129 1584.401245,262.792145 
	C1581.576660,262.860413 1578.745239,262.894440 1575.923584,262.780273 
	C1572.284912,262.633087 1569.949585,260.960480 1569.806152,256.559479 
z"/>
<path fill="#FBFBFB" opacity="1.000000" stroke="none" 
	d="
M891.986816,181.649048 
	C893.565979,183.948669 895.744141,186.106216 895.768616,188.287872 
	C896.020081,210.745895 895.957703,233.207901 895.897034,255.668564 
	C895.883118,260.839813 894.119690,262.671234 889.053467,262.799011 
	C874.387512,263.168915 874.896667,262.461182 874.978821,249.439331 
	C875.102600,229.807678 875.006775,210.174667 875.013550,190.542236 
	C875.016357,182.348221 876.217896,181.162201 884.629517,181.185349 
	C886.948669,181.191742 889.267212,181.401627 891.986816,181.649048 
z"/>
<path fill="#F5F5F5" opacity="1.000000" stroke="none" 
	d="
M1311.986694,227.831055 
	C1314.349731,214.874542 1316.660645,202.344528 1318.971436,189.814514 
	C1319.228638,189.830948 1319.485840,189.847382 1319.743164,189.863800 
	C1321.280151,198.252167 1322.811279,206.641571 1324.355469,215.028595 
	C1325.908936,223.465759 1327.475098,231.900635 1329.085449,240.605957 
	C1322.483032,240.605957 1316.383789,240.605957 1309.670166,240.605957 
	C1310.459717,236.299835 1311.197021,232.278702 1311.986694,227.831055 
z"/>
<path fill="#F7F7F7" opacity="1.000000" stroke="none" 
	d="
M790.909485,357.011963 
	C790.908875,362.675018 790.992004,367.842468 790.884216,373.005981 
	C790.776062,378.188843 789.055969,379.880707 783.972107,379.995667 
	C780.641113,380.070984 777.306946,380.017242 773.974243,380.004364 
	C773.312683,380.001831 772.651428,379.922272 771.648865,379.855499 
	C771.648865,366.607025 771.648865,353.399506 771.648865,339.851685 
	C776.274475,339.851685 780.739197,339.802185 785.202271,339.867157 
	C788.851440,339.920288 790.691162,342.018616 790.832886,345.518890 
	C790.981079,349.179199 790.893860,352.848999 790.909485,357.011963 
z"/>
</svg>